# xmcd
#
# Track frame offsets: 
#        150
#        12985
#        30726
#        48942
#        84592
#        119458
#        139177
#        159890
#        175500
#        219049
#        263362
#
# Disc length: 3739 seconds
#
# Revision: 0
# Processed by: cddbd v1.4PL0 Copyright (c) Steve Scherf et al.
# Submitted via: ExactAudioCopy v0.90b4
#
DISCID=7d0e990b
DTITLE=Van Morrison - In The Dimness Of The Twilight, disc 1
DYEAR=1999
DGENRE=Celtic
TTITLE0=I Love Being In Love
TTITLE1=Bright Lights Big City
TTITLE2=Don't Let The Sun Catch You Crying
TTITLE3=I've Been Working > Cold Sweat
TTITLE4=Philosophers Stone > Oh Didn't He Ramble
TTITLE5=Back On Top
TTITLE6=Naked In The Jungle
TTITLE7=Que Sera Sera > Hound Dog
TTITLE8=It's All In The Game > You Know What They're Writing About
TTITLE9=In The Afternoon > Joe Turner Sings > Don't You Make Me High >
TTITLE9=Sex Machine
TTITLE10=Orangefield
EXTD=
EXTT0=
EXTT1=
EXTT2=
EXTT3=
EXTT4=
EXTT5=
EXTT6=
EXTT7=
EXTT8=
EXTT9=
EXTT10=
PLAYORDER=
